<svg width="1124" height="1011" viewBox="0 0 1124 1011" fill="none" xmlns="http://www.w3.org/2000/svg">
<rect width="1124" height="1011" fill="white"/>
<path d="M509 642.5L470 611.5V559.5L498 517L512.5 482L519 511.5L509 582.5L541 616L552 655.5L509 642.5Z" fill="#EC903B"/>
<path d="M653.5 545.5L591.5 649.5L533.5 566.5L560.5 482L552 465.5L568.5 432V353L627 268.5L608.5 359.5L638 418L634 465.5L653.5 545.5Z" fill="#EC903B"/>
<path d="M729.5 593.5L638 642.5H634L642 602L666.5 545.5L693.5 531V493L705 471.5L733 511.5L729.5 593.5Z" fill="#EC903B"/>
<path d="M650 395V364L662.5 388L658 408L653.5 436L650 395Z" fill="#EC903B"/>
<path d="M533.5 487L523 449L519 423.5L529 395L533.5 423.5L541 460.5L533.5 487Z" fill="#EC903B"/>
<path d="M509 642.5L470 611.5V559.5L498 517L512.5 482L519 511.5L509 582.5L541 616L552 655.5L509 642.5Z" stroke="black"/>
<path d="M653.5 545.5L591.5 649.5L533.5 566.5L560.5 482L552 465.5L568.5 432V353L627 268.5L608.5 359.5L638 418L634 465.5L653.5 545.5Z" stroke="black"/>
<path d="M729.5 593.5L638 642.5H634L642 602L666.5 545.5L693.5 531V493L705 471.5L733 511.5L729.5 593.5Z" stroke="black"/>
<path d="M650 395V364L662.5 388L658 408L653.5 436L650 395Z" stroke="black"/>
<path d="M533.5 487L523 449L519 423.5L529 395L533.5 423.5L541 460.5L533.5 487Z" stroke="black"/>
<path d="M591 549L534 567L591 647.5V549Z" fill="#FF3A00"/>
<path d="M533.5 459L527 462.5L533.5 485V459Z" fill="#FF3A00"/>
<path d="M654 410.5L652 412L653.5 433.5L654 410.5Z" fill="#FF3A00"/>
<path d="M591 549L640 567.091L591 648V549Z" fill="#F05133"/>
<path d="M558.733 489.598L632.912 465.833L590.083 550.951L558.733 489.598Z" fill="#F47530"/>
<path d="M523.5 448.5L536.5 439.5L533.5 459L523.5 448.5Z" fill="#F47530"/>
<path d="M654 401.5L650.5 395L652 412L653.5 411L654 401.5Z" fill="#F47530"/>
<path d="M471 559.5L513.5 545L488.35 598.33L471 559.5Z" fill="#FFD230"/>
<path d="M470.5 559L488.5 598.5L470.5 611.5L470.5 559Z" fill="#FEE332"/>
<path d="M664.5 551.5L701 578.5L661 614L664.5 551.5Z" fill="#F47530"/>
<path d="M471.489 611.493L508.5 583L526.806 622.042L471.489 611.493Z" fill="#F47530"/>
<path d="M591.338 550.45L534.12 567.307L558.72 490.383L591.338 550.45Z" fill="#F2602F"/>
<path d="M533.5 459L527 462.5L523.5 448.5L533.5 459Z" fill="#F2602F"/>
<path d="M657 411L653.5 410.5L654 401L657 411Z" fill="#F2602F"/>
<path d="M654 401.5L650.5 395L656 388L654 401.5Z" fill="#FFE74B"/>
<path d="M523.5 448.5L519.5 423.5L527 423L528.5 447L523.5 448.5Z" fill="#FFE74B"/>
<path d="M471 612L509.5 642L512 642.5L526 622L471 612Z" fill="#F2602F"/>
<path d="M661.5 614L642.852 602.365L664 552.5L661.5 614Z" fill="#F2602F"/>
<path d="M525.691 621.938L541.317 618.547L550.524 652.57L525.691 621.938Z" fill="#F05133"/>
<path d="M533.5 459L540.5 460.5L533.5 485.5L533.5 459Z" fill="#F05133"/>
<path d="M653.674 410.5L657 411L653.674 432.5L653.674 410.5Z" fill="#F05133"/>
<path d="M661.269 614L664.93 627.48L634 642.485L661.269 614Z" fill="#F05133"/>
<path d="M525.98 621.703L511.557 642.71L551.712 654.471L525.98 621.703Z" fill="#FF3A00"/>
<path d="M694 493.7L732.5 512L711 481L694 493.7Z" fill="#FFEB67"/>
<path d="M694.5 493.5L713 540L720.5 537L732 512L694.5 493.5Z" fill="#FFE74B"/>
<path d="M569 352.5L595.999 426.447L619.5 422L607.5 360L569 352.5Z" fill="#FFE74B"/>
<path d="M650.5 366L650.5 395L656 388L650.5 366Z" fill="#FFF4AA"/>
<path d="M529 396.5L519.5 423.5L527 423.5L529 396.5Z" fill="#FFF4AA"/>
<path d="M506 522L501.5 549.5L513.5 545L518.5 512.5L506 522Z" fill="#E9D551"/>
<path d="M607.5 359L619 422L637 418L623 389.5L607.5 359Z" fill="#E9D551"/>
<path d="M694 531.329L713.5 540.5L708.5 517L694 493L694 531.329Z" fill="#FFEB67"/>
<path d="M569 431.5L596 426.5L583.5 377.5L569 352.5L569 431.5Z" fill="#FFEB67"/>
<path d="M470.729 559.157L501.5 549L504 534L498 517.5L470.729 559.157Z" fill="#FFEB67"/>
<path d="M694 493.5L711 481L705 472L694 493.5Z" fill="#FFF4AA"/>
<path d="M591 360L569 353L625.516 271L591 360Z" fill="#FFF4AA"/>
<path d="M607.5 360L591 360L626.5 269.5L607.5 360Z" fill="#FFED78"/>
<path d="M498 518L516 500L512.5 483L498 518Z" fill="#FFF4AA"/>
<path d="M664.5 551L676.555 560.07L713.344 540.138L694 531.5L667 545.5L664.5 551Z" fill="#FEE332"/>
<path d="M561 482L559 489L601 476L569.5 431.5L552.427 465.313L561 482Z" fill="#FEE332"/>
<path d="M676.5 560L701.009 578.911L720.5 536.5L676.5 560Z" fill="#FFD230"/>
<path d="M569 431.5L601 476L637.5 418L569 431.5Z" fill="#FFD230"/>
<path d="M650.5 366L662 388L656 388L650.5 366Z" fill="#FFD230"/>
<path d="M529 397.5L532 417.5L527 423L529 397.5Z" fill="#FFD230"/>
<path d="M701 578.5L728.5 593L732 512L701 578.5Z" fill="#F9B337"/>
<path d="M601 476L633.298 465.671L637.5 418L601 476Z" fill="#F9B337"/>
<path d="M654 401.5L660 396.5L662 388L656 388L654 401.5Z" fill="#F9B337"/>
<path d="M528.5 447L536 439.5L532 417.5L527 423L528.5 447Z" fill="#F9B337"/>
<path d="M488.5 598.5L508.5 582.5L513.5 545L488.5 598.5Z" fill="#F9B337"/>
<path d="M642.76 602.532L661.355 613.815L634.682 641.506L642.76 602.532Z" fill="#FF3A00"/>
<path d="M504 534L498 518L516 500L518.5 510.5V512.5L506 522L504 534Z" fill="#FFE74B"/>
<path d="M516.789 760H520.422V741.66H528.566V738.867H520.422V737.383C520.422 736.497 520.533 735.723 520.754 735.059C520.988 734.395 521.327 733.854 521.77 733.438C522.186 733.034 522.707 732.734 523.332 732.539C523.97 732.331 524.699 732.227 525.52 732.227C526.327 732.227 527.082 732.298 527.785 732.441C528.501 732.572 529.126 732.728 529.66 732.91L530.09 729.922C529.751 729.831 529.419 729.753 529.094 729.688C528.768 729.609 528.443 729.538 528.117 729.473C527.622 729.382 527.121 729.31 526.613 729.258C526.105 729.193 525.591 729.16 525.07 729.16C523.82 729.16 522.688 729.336 521.672 729.688C520.656 730.039 519.79 730.56 519.074 731.25C518.345 731.94 517.779 732.799 517.375 733.828C516.984 734.844 516.789 736.029 516.789 737.383V738.867H510.969V741.66H516.789V760ZM535.988 738.867V742.012H543.176V756.875H535.988V760H553.684V756.875H546.789V738.867H535.988ZM542.707 733.32C542.707 733.906 542.883 734.395 543.234 734.785C543.599 735.176 544.146 735.371 544.875 735.371C545.591 735.371 546.132 735.176 546.496 734.785C546.861 734.395 547.043 733.906 547.043 733.32C547.043 732.995 546.991 732.695 546.887 732.422C546.783 732.148 546.626 731.921 546.418 731.738C546.249 731.569 546.034 731.439 545.773 731.348C545.513 731.243 545.214 731.191 544.875 731.191C544.536 731.191 544.23 731.243 543.957 731.348C543.697 731.439 543.482 731.569 543.312 731.738C543.104 731.934 542.948 732.168 542.844 732.441C542.753 732.715 542.707 733.008 542.707 733.32ZM573.293 738.477C571.757 738.477 570.383 738.815 569.172 739.492C567.974 740.156 566.945 741.068 566.086 742.227L566.066 741.699L565.91 738.867H562.473V760H566.105V746.445C566.34 745.794 566.633 745.208 566.984 744.688C567.349 744.154 567.772 743.704 568.254 743.34C568.788 742.923 569.413 742.611 570.129 742.402C570.845 742.181 571.646 742.07 572.531 742.07C573.221 742.07 573.879 742.109 574.504 742.188C575.142 742.253 575.812 742.363 576.516 742.52L577.004 738.984C576.639 738.828 576.092 738.704 575.363 738.613C574.647 738.522 573.957 738.477 573.293 738.477ZM592.805 760.391C594.862 760.391 596.587 759.98 597.98 759.16C599.387 758.327 600.441 757.376 601.145 756.309L598.938 754.59C598.273 755.449 597.44 756.139 596.438 756.66C595.435 757.181 594.289 757.441 593 757.441C592.023 757.441 591.132 757.259 590.324 756.895C589.517 756.53 588.827 756.029 588.254 755.391C587.694 754.792 587.251 754.102 586.926 753.32C586.613 752.539 586.411 751.634 586.32 750.605V750.469H601.418V748.848C601.418 747.376 601.229 746.009 600.852 744.746C600.487 743.483 599.927 742.383 599.172 741.445C598.417 740.521 597.466 739.798 596.32 739.277C595.188 738.743 593.859 738.477 592.336 738.477C591.125 738.477 589.94 738.724 588.781 739.219C587.635 739.714 586.613 740.423 585.715 741.348C584.803 742.285 584.074 743.431 583.527 744.785C582.98 746.126 582.707 747.65 582.707 749.355V750.176C582.707 751.647 582.954 753.008 583.449 754.258C583.944 755.508 584.634 756.589 585.52 757.5C586.405 758.411 587.466 759.121 588.703 759.629C589.953 760.137 591.32 760.391 592.805 760.391ZM592.336 741.445C593.26 741.445 594.055 741.615 594.719 741.953C595.396 742.292 595.956 742.734 596.398 743.281C596.841 743.828 597.186 744.479 597.434 745.234C597.681 745.977 597.805 746.673 597.805 747.324V747.5H586.438C586.581 746.523 586.828 745.664 587.18 744.922C587.544 744.167 587.987 743.529 588.508 743.008C589.029 742.5 589.615 742.116 590.266 741.855C590.917 741.582 591.607 741.445 592.336 741.445ZM608.059 730V733.145H615.246V756.875H608.059V760H625.754V756.875H618.859V730H608.059ZM632.082 738.867V742.012H639.27V756.875H632.082V760H649.777V756.875H642.883V738.867H632.082ZM638.801 733.32C638.801 733.906 638.977 734.395 639.328 734.785C639.693 735.176 640.24 735.371 640.969 735.371C641.685 735.371 642.225 735.176 642.59 734.785C642.954 734.395 643.137 733.906 643.137 733.32C643.137 732.995 643.085 732.695 642.98 732.422C642.876 732.148 642.72 731.921 642.512 731.738C642.342 731.569 642.128 731.439 641.867 731.348C641.607 731.243 641.307 731.191 640.969 731.191C640.63 731.191 640.324 731.243 640.051 731.348C639.79 731.439 639.576 731.569 639.406 731.738C639.198 731.934 639.042 732.168 638.938 732.441C638.846 732.715 638.801 733.008 638.801 733.32ZM669.582 754.395C669.582 754.733 669.517 755.052 669.387 755.352C669.257 755.651 669.068 755.924 668.82 756.172C668.417 756.576 667.857 756.895 667.141 757.129C666.424 757.35 665.585 757.461 664.621 757.461C664.009 757.461 663.391 757.396 662.766 757.266C662.141 757.135 661.574 756.914 661.066 756.602C660.546 756.289 660.109 755.879 659.758 755.371C659.419 754.863 659.224 754.238 659.172 753.496H655.559C655.559 754.395 655.76 755.26 656.164 756.094C656.581 756.927 657.18 757.656 657.961 758.281C658.729 758.919 659.673 759.434 660.793 759.824C661.913 760.202 663.189 760.391 664.621 760.391C665.871 760.391 667.023 760.241 668.078 759.941C669.133 759.642 670.038 759.219 670.793 758.672C671.548 758.125 672.134 757.467 672.551 756.699C672.98 755.931 673.195 755.078 673.195 754.141C673.195 753.268 673.007 752.5 672.629 751.836C672.264 751.172 671.73 750.586 671.027 750.078C670.324 749.583 669.458 749.16 668.43 748.809C667.401 748.444 666.236 748.125 664.934 747.852C663.944 747.656 663.124 747.454 662.473 747.246C661.835 747.038 661.327 746.803 660.949 746.543C660.559 746.283 660.285 745.99 660.129 745.664C659.973 745.339 659.895 744.967 659.895 744.551C659.895 744.147 659.992 743.757 660.188 743.379C660.383 743.001 660.676 742.669 661.066 742.383C661.444 742.096 661.919 741.868 662.492 741.699C663.078 741.53 663.755 741.445 664.523 741.445C665.266 741.445 665.93 741.549 666.516 741.758C667.115 741.966 667.622 742.24 668.039 742.578C668.456 742.917 668.781 743.307 669.016 743.75C669.25 744.18 669.367 744.622 669.367 745.078H672.98C672.98 744.154 672.779 743.294 672.375 742.5C671.984 741.693 671.424 740.99 670.695 740.391C669.966 739.792 669.081 739.323 668.039 738.984C666.997 738.646 665.826 738.477 664.523 738.477C663.312 738.477 662.199 738.639 661.184 738.965C660.181 739.29 659.315 739.733 658.586 740.293C657.857 740.853 657.29 741.51 656.887 742.266C656.483 743.008 656.281 743.809 656.281 744.668C656.281 745.54 656.477 746.309 656.867 746.973C657.258 747.624 657.811 748.19 658.527 748.672C659.23 749.167 660.077 749.59 661.066 749.941C662.069 750.293 663.176 750.592 664.387 750.84C665.376 751.035 666.203 751.257 666.867 751.504C667.531 751.738 668.065 751.999 668.469 752.285C668.872 752.572 669.159 752.891 669.328 753.242C669.497 753.581 669.582 753.965 669.582 754.395ZM688.117 733.75H684.484V738.867H678.938V741.66H684.484V753.145C684.484 754.447 684.654 755.56 684.992 756.484C685.344 757.396 685.819 758.138 686.418 758.711C687.017 759.297 687.72 759.727 688.527 760C689.348 760.26 690.227 760.391 691.164 760.391C691.724 760.391 692.284 760.365 692.844 760.312C693.417 760.26 693.957 760.182 694.465 760.078C694.973 759.987 695.441 759.876 695.871 759.746C696.301 759.603 696.665 759.44 696.965 759.258L696.457 756.699C696.236 756.751 695.949 756.816 695.598 756.895C695.259 756.96 694.895 757.025 694.504 757.09C694.1 757.155 693.69 757.214 693.273 757.266C692.857 757.305 692.453 757.324 692.062 757.324C691.529 757.324 691.021 757.259 690.539 757.129C690.07 756.999 689.654 756.771 689.289 756.445C688.924 756.133 688.638 755.71 688.43 755.176C688.221 754.642 688.117 753.965 688.117 753.145V741.66H696.164V738.867H688.117V733.75Z" fill="black"/>
</svg>
