<svg width="250" height="250" viewBox="0 0 250 250" fill="none" xmlns="http://www.w3.org/2000/svg">
<rect width="250" height="250" fill="white"/>
<path d="M76.8365 233.408L54 215.305V184.938L70.3954 160.119L78.8859 139.68L82.692 156.907L76.8365 198.37L95.5741 217.933L102.015 241L76.8365 233.408Z" fill="#EC903B"/>
<path d="M161.449 176.762L125.144 237.496L91.1825 189.026L106.992 139.68L102.015 130.044L111.677 110.481V64.3463L145.932 15L135.099 68.1421L152.373 102.305L150.03 130.044L161.449 176.762Z" fill="#EC903B"/>
<path d="M205.951 204.793L152.373 233.408H150.03L154.715 209.757L169.061 176.762L184.871 168.295V146.103L191.605 133.548L208 156.907L205.951 204.793Z" fill="#EC903B"/>
<path d="M159.399 88.8734V70.77L166.719 84.7855L164.084 96.4651L161.449 112.817L159.399 88.8734Z" fill="#EC903B"/>
<path d="M91.1825 142.599L85.0342 120.408L82.692 105.517L88.5475 88.8734L91.1825 105.517L95.5741 127.124L91.1825 142.599Z" fill="#EC903B"/>
<path d="M76.8365 233.408L54 215.305V184.938L70.3954 160.119L78.8859 139.68L82.692 156.907L76.8365 198.37L95.5741 217.933L102.015 241L76.8365 233.408Z" stroke="black"/>
<path d="M161.449 176.762L125.144 237.496L91.1825 189.026L106.992 139.68L102.015 130.044L111.677 110.481V64.3463L145.932 15L135.099 68.1421L152.373 102.305L150.03 130.044L161.449 176.762Z" stroke="black"/>
<path d="M205.951 204.793L152.373 233.408H150.03L154.715 209.757L169.061 176.762L184.871 168.295V146.103L191.605 133.548L208 156.907L205.951 204.793Z" stroke="black"/>
<path d="M159.399 88.8734V70.77L166.719 84.7855L164.084 96.4651L161.449 112.817L159.399 88.8734Z" stroke="black"/>
<path d="M91.1825 142.599L85.0342 120.408L82.692 105.517L88.5475 88.8734L91.1825 105.517L95.5741 127.124L91.1825 142.599Z" stroke="black"/>
<path d="M124 179L92 189.782L124 238V179Z" fill="#FF3A00"/>
<path d="M91 127L87 129.019L91 142V127Z" fill="#FF3A00"/>
<path d="M161.832 98.4295L160.662 99.3073L161.539 111.889L161.832 98.4295Z" fill="#FF3A00"/>
<path d="M124 179L153 189.782L124 238V179Z" fill="#F05133"/>
<path d="M106.082 144.717L149.491 130.81L124.428 180.621L106.082 144.717Z" fill="#F47530"/>
<path d="M85.4638 120.667L93.0714 115.4L91.3158 126.812L85.4638 120.667Z" fill="#F47530"/>
<path d="M161.832 93.1627L159.784 89.3589L160.662 99.3073L161.539 98.7221L161.832 93.1627Z" fill="#F47530"/>
<path d="M54.7409 185.624L79.6118 177.139L64.8942 208.347L54.7409 185.624Z" fill="#FFD230"/>
<path d="M54.4484 185.331L64.982 208.447L54.4484 216.054L54.4484 185.331Z" fill="#FEE332"/>
<path d="M167.977 180.943L189.336 196.743L165.929 217.517L167.977 180.943Z" fill="#F47530"/>
<path d="M55.0271 216.05L76.6859 199.376L87.3984 222.223L55.0271 216.05Z" fill="#F47530"/>
<path d="M125.162 180.328L91.6784 190.193L106.075 145.177L125.162 180.328Z" fill="#F2602F"/>
<path d="M91.3158 126.812L87.512 128.86L85.4638 120.667L91.3158 126.812Z" fill="#F2602F"/>
<path d="M163.588 98.7221L161.539 98.4295L161.832 92.8701L163.588 98.7221Z" fill="#F2602F"/>
<path d="M161.832 93.1627L159.784 89.3589L163.002 85.2625L161.832 93.1627Z" fill="#FFE74B"/>
<path d="M85.4638 120.667L83.123 106.037L87.512 105.744L88.3898 119.789L85.4638 120.667Z" fill="#FFE74B"/>
<path d="M54.741 216.347L77.271 233.903L78.7341 234.195L86.9268 222.199L54.741 216.347Z" fill="#F2602F"/>
<path d="M166.221 217.517L155.309 210.709L167.684 181.528L166.221 217.517Z" fill="#F2602F"/>
<path d="M86.7461 222.163L95.8904 220.178L101.278 240.088L86.7461 222.163Z" fill="#F05133"/>
<path d="M91.3158 126.812L95.4122 127.689L91.3158 142.319L91.3158 126.812Z" fill="#F05133"/>
<path d="M161.641 98.4295L163.588 98.7221L161.641 111.304L161.641 98.4295Z" fill="#F05133"/>
<path d="M166.086 217.517L168.228 225.406L150.128 234.186L166.086 217.517Z" fill="#F05133"/>
<path d="M86.915 222.025L78.4751 234.318L101.973 241.201L86.915 222.025Z" fill="#FF3A00"/>
<path d="M185.24 147.118L207.77 157.827L195.188 139.686L185.24 147.118Z" fill="#FFEB67"/>
<path d="M185.533 147.001L196.359 174.213L200.748 172.457L207.477 157.827L185.533 147.001Z" fill="#FFE74B"/>
<path d="M112.09 64.488L127.89 107.762L141.643 105.159L134.62 68.877L112.09 64.488Z" fill="#FFE74B"/>
<path d="M159.784 72.3882L159.784 89.3589L163.002 85.2625L159.784 72.3882Z" fill="#FFF4AA"/>
<path d="M88.6824 90.2367L83.1231 106.037L87.512 106.037L88.6824 90.2367Z" fill="#FFF4AA"/>
<path d="M75.2229 163.679L72.5895 179.772L79.6119 177.139L82.5378 158.12L75.2229 163.679Z" fill="#E9D551"/>
<path d="M134.62 68.2918L141.35 105.159L151.884 102.818L143.691 86.1403L134.62 68.2918Z" fill="#E9D551"/>
<path d="M185.24 169.138L196.651 174.505L193.725 160.753L185.24 146.708L185.24 169.138Z" fill="#FFEB67"/>
<path d="M112.09 110.719L127.891 107.793L120.576 79.118L112.09 64.488L112.09 110.719Z" fill="#FFEB67"/>
<path d="M54.5821 185.423L72.5895 179.479L74.0525 170.701L70.5413 161.046L54.5821 185.423Z" fill="#FFEB67"/>
<path d="M185.24 147.001L195.188 139.686L191.677 134.419L185.24 147.001Z" fill="#FFF4AA"/>
<path d="M124.965 68.877L112.09 64.7806L145.163 16.7944L124.965 68.877Z" fill="#FFF4AA"/>
<path d="M134.62 68.877L124.965 68.877L145.739 15.9166L134.62 68.877Z" fill="#FFED78"/>
<path d="M70.5413 161.338L81.0748 150.805L79.0266 140.856L70.5413 161.338Z" fill="#FFF4AA"/>
<path d="M167.977 180.65L175.032 185.958L196.56 174.293L185.24 169.238L169.44 177.431L167.977 180.65Z" fill="#FEE332"/>
<path d="M107.409 140.271L106.238 144.367L130.817 136.76L112.383 110.719L102.392 130.506L107.409 140.271Z" fill="#FEE332"/>
<path d="M174.999 185.916L189.342 196.983L200.748 172.164L174.999 185.916Z" fill="#FFD230"/>
<path d="M112.09 110.719L130.817 136.76L152.176 102.818L112.09 110.719Z" fill="#FFD230"/>
<path d="M159.784 72.3882L166.514 85.2625L163.003 85.2625L159.784 72.3882Z" fill="#FFD230"/>
<path d="M88.6824 90.8219L90.438 102.526L87.512 105.744L88.6824 90.8219Z" fill="#FFD230"/>
<path d="M189.336 196.743L205.429 205.228L207.478 157.827L189.336 196.743Z" fill="#F9B337"/>
<path d="M130.817 136.76L149.717 130.715L152.176 102.818L130.817 136.76Z" fill="#F9B337"/>
<path d="M161.832 93.1627L165.343 90.2367L166.514 85.2625L163.003 85.2625L161.832 93.1627Z" fill="#F9B337"/>
<path d="M88.3898 119.789L92.7788 115.4L90.438 102.526L87.512 105.744L88.3898 119.789Z" fill="#F9B337"/>
<path d="M64.9819 208.447L76.6859 199.083L79.6118 177.138L64.9819 208.447Z" fill="#F9B337"/>
<path d="M155.254 210.806L166.137 217.409L150.527 233.614L155.254 210.806Z" fill="#FF3A00"/>
<path d="M74.2195 170L71 161.059L80.6585 151L82 156.868V157.985L75.2927 163.294L74.2195 170Z" fill="#FFE74B"/>
</svg>
